<?xml version="1.0" encoding="iso-8859-1"?>
<!-- Generator: Adobe Illustrator 19.0.0, SVG Export Plug-In . SVG Version: 6.00 Build 0)  -->
<svg version="1.1" id="Capa_1" xmlns="http://www.w3.org/2000/svg" xmlns:xlink="http://www.w3.org/1999/xlink" x="0px" y="0px"
	 viewBox="0 0 480 480" style="enable-background:new 0 0 480 480;" xml:space="preserve">
<path style="fill:#CCCCCC;" d="M12,160h112v288H12V160z"/>
<path style="fill:#B3B3B3;" d="M396,56h72v392h-72V56z"/>
<path style="fill:#F2F2F2;" d="M124,8h272v464H124V8z"/>
<path style="fill:#29ABE2;" d="M228,416h32v56h-32V416z"/>
<path style="fill:#0071BC;" d="M260,416h32v56h-32V416z"/>
<path d="M244,80c4.418,0,8-3.582,8-8v-8h16v8c0,4.418,3.582,8,8,8s8-3.582,8-8V40c0-4.418-3.582-8-8-8s-8,3.582-8,8v8h-16v-8
	c0-4.418-3.582-8-8-8s-8,3.582-8,8v32C236,76.418,239.582,80,244,80z"/>
<path d="M148,88h24v24h-24V88z"/>
<path d="M188,88h24v24h-24V88z"/>
<path d="M228,88h24v24h-24V88z"/>
<path d="M268,88h24v24h-24V88z"/>
<path d="M308,88h24v24h-24V88z"/>
<path d="M348,88h24v24h-24V88z"/>
<path d="M148,128h24v24h-24V128z"/>
<path d="M188,128h24v24h-24V128z"/>
<path d="M228,128h24v24h-24V128z"/>
<path d="M268,128h24v24h-24V128z"/>
<path d="M308,128h24v24h-24V128z"/>
<path d="M348,128h24v24h-24V128z"/>
<path d="M148,168h24v24h-24V168z"/>
<path d="M188,168h24v24h-24V168z"/>
<path d="M228,168h24v24h-24V168z"/>
<path d="M268,168h24v24h-24V168z"/>
<path d="M308,168h24v24h-24V168z"/>
<path d="M348,168h24v24h-24V168z"/>
<path d="M148,208h24v24h-24V208z"/>
<path d="M188,208h24v24h-24V208z"/>
<path d="M228,208h24v24h-24V208z"/>
<path d="M268,208h24v24h-24V208z"/>
<path d="M308,208h24v24h-24V208z"/>
<path d="M348,208h24v24h-24V208z"/>
<path d="M148,248h24v24h-24V248z"/>
<path d="M188,248h24v24h-24V248z"/>
<path d="M228,248h24v24h-24V248z"/>
<path d="M268,248h24v24h-24V248z"/>
<path d="M308,248h24v24h-24V248z"/>
<path d="M348,248h24v24h-24V248z"/>
<path d="M148,288h24v24h-24V288z"/>
<path d="M188,288h24v24h-24V288z"/>
<path d="M228,288h24v24h-24V288z"/>
<path d="M268,288h24v24h-24V288z"/>
<path d="M308,288h24v24h-24V288z"/>
<path d="M348,288h24v24h-24V288z"/>
<path d="M148,328h24v24h-24V328z"/>
<path d="M188,328h24v24h-24V328z"/>
<path d="M228,328h24v24h-24V328z"/>
<path d="M268,328h24v24h-24V328z"/>
<path d="M308,328h24v24h-24V328z"/>
<path d="M348,328h24v24h-24V328z"/>
<path d="M148,368h24v24h-24V368z"/>
<path d="M188,368h24v24h-24V368z"/>
<path d="M228,368h24v24h-24V368z"/>
<path d="M268,368h24v24h-24V368z"/>
<path d="M308,368h24v24h-24V368z"/>
<path d="M348,368h24v24h-24V368z"/>
<path d="M148,408h24v24h-24V408z"/>
<path d="M348,408h24v24h-24V408z"/>
<path d="M420,80h24v24h-24V80z"/>
<path d="M420,120h24v24h-24V120z"/>
<path d="M420,160h24v24h-24V160z"/>
<path d="M420,200h24v24h-24V200z"/>
<path d="M420,240h24v24h-24V240z"/>
<path d="M420,280h24v24h-24V280z"/>
<path d="M420,320h24v24h-24V320z"/>
<path d="M420,360h24v24h-24V360z"/>
<path d="M420,400h24v24h-24V400z"/>
<path d="M12,456c4.418,0,8-3.582,8-8V168h96v304c0,4.418,3.582,8,8,8h272c4.418,0,8-3.582,8-8V64h56v384c0,4.418,3.582,8,8,8
	s8-3.582,8-8V56c0-4.418-3.582-8-8-8h-64V8c0-4.418-3.582-8-8-8H124c-4.418,0-8,3.582-8,8v144H76V64c0-4.418-3.582-8-8-8
	s-8,3.582-8,8v88H12c-4.418,0-8,3.582-8,8v288C4,452.418,7.582,456,12,456z M236,464v-40h16v40H236z M268,464v-40h16v40H268z
	 M132,16h256v448h-88v-48c0-4.418-3.582-8-8-8h-64c-4.418,0-8,3.582-8,8v48h-88V16z"/>
<path d="M36,184h24v24H36V184z"/>
<path d="M36,224h24v24H36V224z"/>
<path d="M36,264h24v24H36V264z"/>
<path d="M36,304h24v24H36V304z"/>
<path d="M36,344h24v24H36V344z"/>
<path d="M36,384h24v24H36V384z"/>
<path d="M76,184h24v24H76V184z"/>
<path d="M76,224h24v24H76V224z"/>
<path d="M76,264h24v24H76V264z"/>
<path d="M76,304h24v24H76V304z"/>
<path d="M76,344h24v24H76V344z"/>
<path d="M76,384h24v24H76V384z"/>
<g>
</g>
<g>
</g>
<g>
</g>
<g>
</g>
<g>
</g>
<g>
</g>
<g>
</g>
<g>
</g>
<g>
</g>
<g>
</g>
<g>
</g>
<g>
</g>
<g>
</g>
<g>
</g>
<g>
</g>
</svg>
