<svg height="512pt" viewBox="0 0 512 512" width="512pt" xmlns="http://www.w3.org/2000/svg"><path d="m10 177.171875v58.019531c135.863281-135.859375 356.136719-135.859375 492 0l.003906-58.019531c-146.070312-106.894531-345.9375-106.894531-492.003906 0zm0 0" fill="#ff8e4b"/><path d="m10.1875 376.246094v-57.796875c0-30.929688 25.074219-56 56-56 30.929688 0 56 25.070312 56 56v57.796875h65.8125v-70.386719c0-37.554687 30.445312-68 68-68s68 30.445313 68 68v70.386719h66v-57.796875c0-30.929688 25.070312-56 56-56s56 25.070312 56 56v57.796875-141.054688c-135.863281-135.859375-356.136719-135.859375-492 0zm0 0" fill="#edf2fa"/><path d="m59.199219 480.4375c12.234375 13.253906 29.742187 21.5625 49.199219 21.5625 19.457031 0 36.96875-8.308594 49.203124-21.5625 12.230469 13.253906 29.742188 21.5625 49.199219 21.5625s36.96875-8.308594 49.199219-21.5625c12.230469 13.253906 29.742188 21.5625 49.199219 21.5625s36.96875-8.308594 49.199219-21.5625c12.234374 13.253906 29.746093 21.5625 49.203124 21.5625 19.457032 0 36.96875-8.308594 49.199219-21.5625 12.230469 13.253906 29.742188 21.5625 49.199219 21.5625v-183.550781c0-20.476563-11-38.382813-27.40625-48.148438-20.832031 8.160157-35.59375 28.425781-35.59375 52.148438v57.792969h-66v-4h-49v-70.382813c0-26.914063-15.640625-50.175781-38.328125-61.195313-28.136719 8.328126-48.671875 34.359376-48.671875 65.195313v70.386719h-65.8125v-4h-49v-57.796875c0-20.476563-11-38.382813-27.40625-48.148438-20.832031 8.160157-35.59375 28.425781-35.59375 52.148438v57.796875l-.125 100.332031c.042969-.046875.09375-.089844.136719-.140625zm0 0" fill="#9bf"/><path d="m512 49.667969c0-5.523438-4.476562-10-10-10s-10 4.476562-10 10v75.359375c-29.328125-19.480469-60.882812-35.191406-94.136719-46.867188-.257812-.101562-.515625-.195312-.78125-.277344-3.308593-1.15625-6.632812-2.285156-9.972656-3.359374-32.335937-10.394532-65.6875-16.863282-99.519531-19.351563-.007813 0-.015625 0-.019532 0-10.484374-.773437-21.011718-1.171875-31.566406-1.171875-.003906 0 0 0-.003906 0-10.554688 0-21.082031.398438-31.5625 1.171875-.007812 0-.015625 0-.027344 0-33.828125 2.488281-67.183594 8.957031-99.511718 19.351563-37.222657 11.964843-72.421876 28.929687-104.898438 50.503906v-75.359375c0-5.523438-4.476562-10-10-10s-10 4.476562-10 10l.1875 326.578125c0 5.523437 4.476562 10 10 10s10-4.476563 10-10v-57.796875c0-25.363281 20.636719-46 46-46 25.367188 0 46 20.636719 46 46v57.796875c0 5.523437 4.476562 10 10 10h65.8125c5.523438 0 10-4.476563 10-10v-70.386719c0-31.980469 26.019531-58 58-58s58 26.019531 58 58v70.386719c0 5.519531 4.476562 10 10 10h66c5.523438 0 10-4.480469 10-10v-57.796875c0-25.363281 20.636719-46 46-46s46 20.636719 46 46v57.796875c0 5.519531 4.476562 10 10 10s10-4.480469 10-10zm-20 162.4375c-10.84375-9.535157-22.191406-18.347657-34-26.441407v-58.214843c11.589844 6.664062 22.9375 13.941406 34 21.832031zm-195.4375-86.515625v-50.117188c11.320312 1.140625 22.597656 2.761719 33.8125 4.863282v50.722656c-11.164062-2.363282-22.441406-4.1875-33.8125-5.46875zm53.8125-40.984375c11.371094 2.730469 22.652344 5.957031 33.8125 9.6875v52.671875c-11.121094-4.265625-22.398438-7.964844-33.8125-11.082032zm53.8125 16.96875c11.433594 4.5 22.71875 9.535156 33.8125 15.117187v56.21875c-10.921875-6.453125-22.199219-12.324218-33.8125-17.597656zm-127.625-27.617188v49.941407c-6.828125-.382813-13.679688-.601563-20.5625-.601563s-13.734375.21875-20.5625.601563v-49.941407c13.699219-.699219 27.425781-.699219 41.125 0zm-168.75 81.355469c-11.613281 5.273438-22.890625 11.144531-33.8125 17.597656v-56.21875c11.09375-5.582031 22.378906-10.617187 33.8125-15.117187zm20-61.019531c11.160156-3.730469 22.441406-6.957031 33.8125-9.6875v47.078125c0 1.414062.296875 2.753906.824219 3.972656-11.695313 3.164062-23.246094 6.941406-34.636719 11.308594zm53.8125-13.957031c11.214844-2.101563 22.496094-3.722657 33.8125-4.867188v50.117188c-11.371094 1.28125-22.648438 3.109374-33.8125 5.472656zm-127.625 47.117187v58.210937c-11.808594 8.09375-23.15625 16.90625-34 26.441407v-62.824219c11.0625-7.890625 22.410156-15.167969 34-21.828125zm392 124.996094c-36.394531 0-66 29.605469-66 66v47.796875h-46v-60.386719c0-43.007813-34.992188-78-78-78s-78 34.992187-78 78v60.386719h-45.8125v-47.796875c0-36.394531-29.609375-66-66-66-17.96875 0-34.273438 7.226562-46.1875 18.914062v-31.957031c130.996094-127.90625 341-127.90625 472 0v31.777344c-11.898438-11.582032-28.125-18.734375-46-18.734375zm0 0"/><path d="m502 437.867188c-15.839844 0-31.09375-6.6875-41.851562-18.34375-1.894532-2.050782-4.558594-3.21875-7.347657-3.21875-2.792969 0-5.457031 1.167968-7.351562 3.21875-10.757813 11.65625-26.011719 18.34375-41.851563 18.34375-15.835937 0-31.089844-6.6875-41.851562-18.34375-1.890625-2.050782-4.554688-3.21875-7.347656-3.21875-2.792969 0-5.457032 1.167968-7.347657 3.21875-10.761719 11.65625-26.015625 18.34375-41.851562 18.34375-15.839844 0-31.09375-6.6875-41.851563-18.34375-1.894531-2.050782-4.558594-3.21875-7.351562-3.21875-2.792969 0-5.457032 1.167968-7.347656 3.21875-10.757813 11.65625-26.011719 18.34375-41.851563 18.34375-15.835937 0-31.09375-6.6875-41.851563-18.34375-1.894531-2.050782-4.558593-3.21875-7.347656-3.21875-2.792968 0-5.457031 1.167968-7.351562 3.21875-10.757813 11.65625-26.011719 18.34375-41.851563 18.34375-15.835937 0-31.089843-6.6875-41.851562-18.34375-1.890625-2.050782-4.554688-3.21875-7.347657-3.21875-2.792968 0-5.457031 1.167968-7.347656 3.21875-10.753906 11.65625-26.007812 18.34375-41.847656 18.34375-5.523438 0-10 4.476562-10 10 0 5.523437 4.476562 10 10 10 18.011719 0 35.460938-6.394532 49.199219-17.808594 13.738281 11.414062 31.1875 17.808594 49.199219 17.808594 18.011718 0 35.460937-6.394532 49.203124-17.808594 13.738282 11.414062 31.1875 17.808594 49.199219 17.808594s35.460938-6.394532 49.199219-17.808594c13.738281 11.414062 31.1875 17.808594 49.199219 17.808594s35.460937-6.394532 49.199219-17.808594c13.742187 11.414062 31.191406 17.808594 49.203124 17.808594 18.007813 0 35.460938-6.394532 49.199219-17.808594 13.738281 11.414062 31.1875 17.808594 49.199219 17.808594 5.523438 0 10-4.476563 10-10 0-5.523438-4.476562-10-10-10zm0 0"/><path d="m502 492c-15.839844 0-31.09375-6.6875-41.851562-18.34375-1.890626-2.050781-4.558594-3.21875-7.347657-3.21875-2.792969 0-5.457031 1.167969-7.351562 3.21875-10.757813 11.65625-26.011719 18.34375-41.847657 18.34375-15.839843 0-31.09375-6.6875-41.855468-18.34375-1.890625-2.050781-4.554688-3.21875-7.347656-3.21875-2.792969 0-5.457032 1.167969-7.347657 3.21875-10.757812 11.65625-26.011719 18.34375-41.851562 18.34375-15.835938 0-31.089844-6.6875-41.851563-18.34375-1.894531-2.050781-4.558594-3.21875-7.347656-3.21875-2.792969 0-5.457031 1.167969-7.351562 3.21875-10.757813 11.65625-26.011719 18.34375-41.847657 18.34375-15.839843 0-31.09375-6.6875-41.851562-18.34375-1.894531-2.050781-4.558594-3.21875-7.351563-3.21875-2.789062 0-5.453125 1.167969-7.347656 3.21875-10.757812 11.65625-26.011719 18.34375-41.851562 18.34375-15.835938 0-31.089844-6.6875-41.847657-18.34375-1.894531-2.050781-4.558593-3.21875-7.351562-3.21875s-5.457031 1.167969-7.347657 3.21875c-10.757812 11.65625-26.011718 18.34375-41.851562 18.34375-5.523438 0-10 4.476562-10 10s4.476562 10 10 10c18.011719 0 35.460938-6.394531 49.199219-17.804688 13.742187 11.410157 31.191406 17.804688 49.199219 17.804688 18.011718 0 35.460937-6.394531 49.203124-17.804688 13.738282 11.410157 31.1875 17.804688 49.199219 17.804688s35.460938-6.394531 49.199219-17.804688c13.738281 11.410157 31.1875 17.804688 49.199219 17.804688s35.460937-6.394531 49.199219-17.804688c13.742187 11.410157 31.191406 17.804688 49.203124 17.804688 18.007813 0 35.457032-6.394531 49.199219-17.804688 13.738281 11.410157 31.1875 17.804688 49.199219 17.804688 5.523438 0 10-4.476562 10-10s-4.476562-10-10-10zm0 0"/><path d="m502 20c2.628906 0 5.210938-1.070312 7.070312-2.929688 1.859376-1.859374 2.929688-4.441406 2.929688-7.070312s-1.070312-5.210938-2.929688-7.070312c-1.859374-1.859376-4.441406-2.929688-7.070312-2.929688s-5.210938 1.070312-7.070312 2.929688c-1.859376 1.859374-2.929688 4.441406-2.929688 7.070312s1.070312 5.210938 2.929688 7.070312c1.859374 1.859376 4.441406 2.929688 7.070312 2.929688zm0 0"/><path d="m10 20c2.628906 0 5.210938-1.070312 7.070312-2.929688 1.859376-1.859374 2.929688-4.441406 2.929688-7.070312s-1.070312-5.210938-2.929688-7.070312c-1.859374-1.859376-4.441406-2.929688-7.070312-2.929688s-5.210938 1.070312-7.070312 2.929688c-1.859376 1.859374-2.929688 4.441406-2.929688 7.070312s1.070312 5.210938 2.929688 7.070312c1.859374 1.859376 4.441406 2.929688 7.070312 2.929688zm0 0"/></svg>