<svg height="512" viewBox="0 0 512 512" width="512" xmlns="http://www.w3.org/2000/svg"><g><g><path d="m64 336h128v40h-128z" fill="#ff9811"/><path d="m40 408h176v32h-176z" fill="#ff9811"/><circle cx="312" cy="344" fill="#91cc04" r="64"/><ellipse cx="432" cy="200" fill="#91cc04" rx="64" ry="96"/><path d="m220 80a28.163 28.163 0 0 0 -4.007.29c0-.1.007-.193.007-.29a48 48 0 0 0 -90.783-21.754 40 40 0 1 0 -13.217 77.754h104v-.289a28 28 0 1 0 4-55.711z" fill="#e0e0e2"/></g><g><path d="m496 472h-56v-48.12l34.96-27.6a8 8 0 0 0 -9.92-12.56l-25.04 19.77v-100.11c16.77-2.61 32.14-13.4 43.91-31.06 12.96-19.43 20.09-45.11 20.09-72.32s-7.13-52.89-20.09-72.32c-13.62-20.43-32.05-31.68-51.91-31.68s-38.29 11.25-51.91 31.68c-12.96 19.43-20.09 45.11-20.09 72.32s7.13 52.89 20.09 72.32c11.77 17.66 27.14 28.45 43.91 31.06v168.62h-104v-56.46a72 72 0 1 0 -16 0v20.64l-29.03-11.61a8 8 0 1 0 -5.94 14.86l34.97 13.99v18.58h-96v-24h8a8 8 0 0 0 8-8v-32a8 8 0 0 0 -8-8h-32v-16h8a8 8 0 0 0 8-8v-40a8 8 0 0 0 -8-8h-8v-8a8 8 0 0 0 -16 0v8h-80v-8a8 8 0 0 0 -16 0v8h-8a8 8 0 0 0 -8 8v40a8 8 0 0 0 8 8h8v16h-32a8 8 0 0 0 -8 8v32a8 8 0 0 0 8 8h8v24h-32a8 8 0 0 0 0 16h480a8 8 0 0 0 0-16zm-424-128h112v24h-112zm96 40v16h-80v-16zm-120 32h160v16h-160zm144 56h-128v-24h128zm120-136a8 8 0 0 0 -8 8v55.42a56 56 0 1 1 16 0v-55.42a8 8 0 0 0 -8-8zm120-144a8 8 0 0 0 -8 8v87.09c-11.38-2.62-22.03-10.79-30.6-23.65-11.22-16.83-17.4-39.36-17.4-63.44s6.18-46.61 17.4-63.44c10.56-15.84 24.27-24.56 38.6-24.56s28.04 8.72 38.6 24.56c11.22 16.83 17.4 39.36 17.4 63.44s-6.18 46.61-17.4 63.44c-8.57 12.86-19.22 21.03-30.6 23.65v-87.09a8 8 0 0 0 -8-8z"/><path d="m223.45 72.16a56 56 0 0 0 -102.04-23.23 48 48 0 1 0 -9.41 95.07h108a36 36 0 0 0 3.45-71.84zm-111.45 55.84a32 32 0 0 1 0-64 31.685 31.685 0 0 1 10.57 1.8 8.006 8.006 0 0 0 9.77-3.92 40 40 0 0 1 75.66 18.02c0 .11-.01.21-.01.31a8 8 0 0 0 9.14 8 20 20 0 1 1 2.87 39.79z"/></g></g></svg>