<svg id="Capa_1" enable-background="new 0 0 511.569 511.569" height="512" viewBox="0 0 511.569 511.569" width="512" xmlns="http://www.w3.org/2000/svg"><g><g><g><path d="m211.51 293.456h88.593v206.328h-88.593z" fill="#e19974"/></g><g><path d="m211.51 293.284v73h17.875c16.413 0 29.718 13.305 29.718 29.718v103.782h41v-133.5-72.828-.172z" fill="#d77f4a"/></g><g><g><path d="m138.69 453.793c-15.672 0-28.422-12.752-28.422-28.428 0-4.142 3.358-7.5 7.5-7.5s7.5 3.358 7.5 7.5c0 7.404 6.021 13.428 13.422 13.428s13.422-6.023 13.422-13.428v-104.639c0-4.142 3.358-7.5 7.5-7.5s7.5 3.358 7.5 7.5v104.639c0 15.675-12.75 28.428-28.422 28.428z" fill="#80d261"/></g></g><g><g><path d="m97.538 391.549c-13.313 0-24.144-10.833-24.144-24.148v-83.241c0-4.142 3.358-7.5 7.5-7.5s7.5 3.358 7.5 7.5v83.241c0 5.044 4.102 9.148 9.144 9.148s9.144-4.104 9.144-9.148c0-4.142 3.358-7.5 7.5-7.5s7.5 3.358 7.5 7.5c0 13.315-10.831 24.148-24.144 24.148z" fill="#80d261"/></g></g><g><g><path d="m411.324 391.549c-13.313 0-24.144-10.833-24.144-24.148 0-4.142 3.358-7.5 7.5-7.5s7.5 3.358 7.5 7.5c0 5.044 4.102 9.148 9.144 9.148s9.144-4.104 9.144-9.148v-83.241c0-4.142 3.358-7.5 7.5-7.5s7.5 3.358 7.5 7.5v83.241c0 13.315-10.831 24.148-24.144 24.148z" fill="#80d261"/></g></g><g><g><path d="m372.922 453.793c-15.672 0-28.422-12.752-28.422-28.428v-104.639c0-4.142 3.358-7.5 7.5-7.5s7.5 3.358 7.5 7.5v104.639c0 7.404 6.021 13.428 13.422 13.428s13.422-6.023 13.422-13.428c0-4.142 3.358-7.5 7.5-7.5s7.5 3.358 7.5 7.5c.001 15.675-12.749 28.428-28.422 28.428z" fill="#80d261"/></g></g><g><path d="m467.273 209.72c-8.077-3.607-12.526-12.445-10.681-21.097 1.144-5.365 1.748-10.929 1.748-16.637 0-44.04-35.692-79.741-79.721-79.741-.754 0-1.505.011-2.254.032-7.719.219-14.792-4.403-17.852-11.494-17.513-40.586-57.86-68.999-104.861-68.999-46.59 0-86.661 27.909-104.42 67.924-3.056 6.886-10.01 11.112-17.541 11.099-.045 0-.089 0-.134 0-44.029 0-79.721 35.701-79.721 79.741 0 6.196.707 12.227 2.044 18.017 2.013 8.719-2.127 17.734-10.25 21.485-22.357 10.322-37.58 33.46-36.242 59.999 1.612 31.984 27.66 57.827 59.646 59.205 13.843.596 28.793-3.324 39.403-10.4 5.118-3.414 11.738-3.538 16.845-.108 9.935 6.671 19.827 10.568 32.693 10.568 15.462 0 33.724-3.562 44.632-12.869 5.656-4.826 13.859-4.826 19.515 0 10.908 9.307 20.94 12.869 36.402 12.869 12.868 0 24.82-3.898 34.756-10.572 5.046-3.389 11.627-3.389 16.673 0 9.936 6.673 21.888 10.572 34.756 10.572 15.143 0 29.022-3.335 39.833-12.302 5.667-4.7 13.767-4.712 19.433-.01 11.414 9.471 26.249 12.901 42.382 12.262 32.055-1.269 59.526-29.534 59.943-61.62.336-25.805-14.967-48.072-37.027-57.924z" fill="#ade194"/></g><g><path d="m467.273 209.72c-8.077-3.607-12.526-12.445-10.681-21.097 1.144-5.365 1.749-10.929 1.749-16.637 0-41.974-32.429-76.348-73.59-79.483-45.198 104.585-149.266 177.782-270.445 177.782-36.985 0-72.368-6.838-104.981-19.285-1.576 6.042-2.271 12.44-1.938 19.05 1.612 31.984 27.66 57.827 59.646 59.205 13.843.596 28.793-3.324 39.403-10.4 5.118-3.414 11.738-3.538 16.845-.108 9.935 6.671 19.827 10.568 32.693 10.568 15.462 0 33.724-3.562 44.632-12.869 5.656-4.826 13.859-4.826 19.515 0 10.908 9.307 20.94 12.869 36.402 12.869 12.868 0 24.82-3.898 34.756-10.571 5.046-3.389 11.627-3.389 16.673 0 9.936 6.673 21.888 10.571 34.756 10.571 15.143 0 29.022-3.335 39.833-12.302 5.667-4.7 13.767-4.712 19.433-.01 11.414 9.471 26.249 12.901 42.382 12.262 32.055-1.269 59.526-29.534 59.943-61.62.337-25.806-14.966-48.073-37.026-57.925z" fill="#80d261"/></g></g><path d="m470.332 202.871c-4.819-2.152-7.513-7.487-6.404-12.685 12.208-54.204-32.161-107.703-87.775-105.407-4.602.13-8.897-2.671-10.752-6.969-19.276-44.665-63.14-73.526-111.75-73.526-48.082 0-91.76 28.411-111.275 72.381-1.792 4.037-5.971 6.642-10.664 6.642-17.489-.031-34.387 5.103-48.836 14.842-3.435 2.314-4.343 6.976-2.028 10.411s6.977 4.344 10.411 2.028c11.922-8.034 25.856-12.281 40.297-12.281 10.658.068 20.315-6.051 24.53-15.557 37.084-84.483 159.346-83.991 195.541 1.005 4.265 9.883 14.313 16.324 24.954 16.018 40.511-1.208 74.328 31.667 74.26 72.212 0 5.076-.533 10.146-1.583 15.072-2.576 12.078 3.714 24.488 14.957 29.51 20.082 8.969 32.873 28.979 32.587 50.979-.367 28.274-24.519 53.105-52.74 54.222-15.574.621-28.124-2.928-37.296-10.54-8.4-6.97-20.601-6.966-29.01.01-16.702 13.758-47.357 14.137-65.621 1.277-7.605-5.107-17.432-5.107-25.036 0-9.057 6.083-19.629 9.297-30.574 9.297-13.699 0-21.951-2.898-31.534-11.075-8.475-7.231-20.776-7.229-29.251 0-9.57 8.166-26.815 11.075-39.764 11.075-10.283 0-18.81-2.78-28.512-9.294-7.583-5.09-17.468-5.053-25.188.095-35.643 22.951-84.896.924-87.397-42.943-1.14-22.609 11.379-43.339 31.894-52.811 11.172-5.158 17.234-17.768 14.414-29.981-1.228-5.32-1.851-10.814-1.851-16.33 0-12.94 3.458-25.632 10.001-36.704 4.759-8.702-7.548-16.015-12.913-7.632-11.319 18.996-14.894 42.476-9.852 64.04 1.231 5.329-1.329 10.791-6.086 12.988-69.366 33.26-43.834 135.95 32.91 133.477v30.687c-.05 21.346 26.185 32.211 41.205 17.082 4.569-4.554 7.085-10.62 7.085-17.082-.347-9.93-14.657-9.925-15 0 0 2.445-.95 4.739-2.683 6.467-5.645 5.734-15.661 1.592-15.607-6.467v-32.854c8.132-1.978 15.81-5.194 22.203-9.458 2.646-1.765 5.983-1.813 8.502-.121 11 7.386 21.333 11.07 33.015 11.724v88.669c0 7.405-6.025 13.43-13.43 13.43-7.211.148-13.571-6.216-13.42-13.43-.338-9.925-14.66-9.927-15 0 0 7.594 2.957 14.733 8.327 20.103 17.694 17.842 48.582 5.031 48.523-20.103v-89.087c19.894-1.952 31.554-8.831 36.89-12.942v168.949h-44.91c-4.142 0-7.5 3.358-7.5 7.5s3.358 7.5 7.5 7.5h193.419c4.142 0 7.5-3.358 7.5-7.5s-3.358-7.5-7.5-7.5h-44.91v-76.498c0-4.142-3.358-7.5-7.5-7.5s-7.5 3.358-7.5 7.5v76.498h-73.6v-167.132c19.66 15.745 51.936 14.988 73.6 1.624v56.734c0 4.142 3.358 7.5 7.5 7.5s7.5-3.358 7.5-7.5v-56.153c11.137 6.487 23.902 9.779 36.89 9.427v88.581c-.057 25.133 30.83 37.947 48.524 20.103 5.37-5.369 8.327-12.508 8.327-20.103-.349-9.933-14.657-9.923-15 0 .15 7.213-6.209 13.578-13.42 13.429-7.405 0-13.43-6.024-13.43-13.43v-90.042c10.922-2.058 20.247-6.246 27.835-12.539 2.906-2.411 6.959-2.415 9.855-.012 6.625 5.498 14.415 9.383 23.28 11.66v32.972c.053 8.06-9.962 12.2-15.607 6.467-1.73-1.731-2.684-4.028-2.684-6.467-.338-9.924-14.659-9.928-15 0 0 6.446 2.513 12.509 7.077 17.073 15.024 15.141 41.264 4.276 41.213-17.074v-30.72c78.09 4.174 106.67-99.835 34.867-133.811z"/></g></svg>