<svg id="Layer_1" enable-background="new 0 0 512 512" height="512" viewBox="0 0 512 512" width="512" xmlns="http://www.w3.org/2000/svg"><g><path d="m22.131 310.538s32.27-18.022 45.764-39.955 42.537-55.961 55.445-67.313 33.886-49.953 40.118-58.141 9.166-14.914 25.888-13.744c16.721 1.17 30.347 16.25 31.989 35.599s46.353 48.463 71.428 59.216 63.098 48.185 70.489 55.495c7.391 7.311 22.939 28.842 22.939 28.842h-364.06z" fill="#6e98ae"/><path d="m363.251 281.696c-7.391-7.311-45.414-44.742-70.489-55.495s-69.786-39.866-71.428-59.216c-1.642-19.349-15.267-34.43-31.989-35.599 0 0-6.324.296-11.148 4.971-3.203 3.104-6.739 11.827-8.116 26.904-2.51 27.489 30.901 49.129 46.546 73.303 15.646 24.175 31.838 73.975 31.838 73.975h137.725c0-.001-15.548-21.532-22.939-28.843z" fill="#628ea6"/><path d="m363.251 281.696c-7.391-7.311-45.414-44.742-70.489-55.495s-69.786-39.866-71.428-59.216c-1.642-19.349-15.267-34.43-31.989-35.599-.105.055-8.964.474-13.21 7.734 7.522 6.462 12.691 16.416 13.662 27.865 1.642 19.349 47.014 61.469 72.839 70.282 35.903 12.252 61.686 37.118 69.077 44.429s22.939 28.842 22.939 28.842h31.536c.002 0-15.546-21.531-22.937-28.842z" fill="#598399"/><path d="m508 512h-504c-2.209 0-4-1.791-4-4v-168.04h512v168.04c0 2.209-1.791 4-4 4z" fill="#f1f9fb"/><path d="m4 307.509h504c2.209 0 4 1.791 4 4v38.532s-40.316 63.522-181.441 63.522c-170.303 0-133.65 75.258-330.559 75.258v-177.312c0-2.209 1.791-4 4-4z" fill="#bdf9ff"/><path d="m474.527 307.509v14.863c0 16.07-7.356 31.311-20.087 41.116-24.177 18.619-73.016 43.508-161.353 43.508-158.583 0-137.721 65.254-293.087 74.236v7.589c196.909 0 160.256-75.258 330.559-75.258 141.124 0 181.441-63.522 181.441-63.522v-38.532c0-2.209-1.791-4-4-4z" fill="#8cf2ff"/><path d="m254.729 474.398h257.271v33.602c0 2.209-1.791 4-4 4h-280.86v-10.012c0-15.237 12.352-27.59 27.589-27.59z" fill="#e1e9eb"/><path d="m481.095 474.398v37.602h26.905c2.209 0 4-1.791 4-4v-33.602z" fill="#d4dcde"/><path d="m457.167 41.616c-6.443-.094-12.598 1.091-18.231 3.319-3.049 1.205-6.469-.189-7.876-3.159-11.702-24.701-36.794-41.776-65.861-41.776s-54.159 17.075-65.861 41.775c-1.407 2.97-4.827 4.364-7.876 3.159-5.633-2.227-11.788-3.412-18.231-3.319-25.239.368-46.116 20.806-47.071 46.118-1.032 27.352 20.757 49.851 47.782 49.851 12.259 0 23.441-4.63 31.903-12.241 2.449-2.203 6.148-2.102 8.504.201 13.132 12.835 31.071 20.742 50.85 20.742s37.718-7.907 50.85-20.742c2.356-2.303 6.055-2.403 8.504-.201 8.463 7.612 19.644 12.241 31.903 12.241 27.025 0 48.814-22.499 47.782-49.851-.955-25.312-21.832-45.749-47.071-46.117z" fill="#f1f9fb"/><g fill="#e1e9eb"><path d="m504.238 87.734c-.955-25.313-21.833-45.75-47.071-46.118-5.682-.083-11.141.83-16.215 2.575 18.198 6.285 31.62 23.365 32.381 43.544.825 21.879-12.952 40.652-32.331 47.289 4.848 1.66 10.046 2.562 15.453 2.562 27.026-.001 48.815-22.5 47.783-49.852z"/><path d="m400.155 41.775c1.407 2.97 4.827 4.364 7.876 3.159 5.633-2.227 11.788-3.412 18.231-3.319 1.647.024 3.275.134 4.88.325-.028-.055-.055-.109-.081-.165-11.703-24.7-36.795-41.775-65.862-41.775-5.302 0-10.472.569-15.453 1.648 22.323 4.836 40.842 19.933 50.409 40.127z"/></g><path d="m488.215 425.98h-134.175c-2.006 0-3.429-1.917-2.824-3.797.059-.182 66.973-208.09 67.088-208.447.87-2.711 4.778-2.711 5.648 0 7.114 22.103 60.704 188.611 67.088 208.447.604 1.88-.819 3.797-2.825 3.797z" fill="#6ccc5a"/><path d="m491.04 422.183c-6.384-19.836-59.974-186.344-67.088-208.447-.87-2.711-4.778-2.711-5.648 0-.032.099-5.189 16.121-12.629 39.238 18.378 57.103 49.675 154.344 54.459 169.209.605 1.88-.819 3.797-2.824 3.797h30.905c2.006 0 3.429-1.917 2.825-3.797z" fill="#62b552"/><path d="m404.645 425.98h32.966v48.419h-32.966z" fill="#bf6724"/><g fill="#5ba84d"><path d="m393.69 409.5v16.48h-15v-16.48c0-4.15 3.36-7.5 7.5-7.5s7.5 3.35 7.5 7.5z"/><path d="m463.57 409.5v16.48h-15v-16.48c0-4.15 3.35-7.5 7.5-7.5 4.14 0 7.5 3.35 7.5 7.5z"/><path d="m428.63 409.5v16.48h-15v-16.48c0-4.15 3.36-7.5 7.5-7.5s7.5 3.35 7.5 7.5z"/></g></g></svg>