<svg id="Layer_1" enable-background="new 0 0 512 512" height="512" viewBox="0 0 512 512" width="512" xmlns="http://www.w3.org/2000/svg"><g><path d="m489.5 504.5h-467c-8.284 0-15-6.716-15-15 0-8.284 6.716-15 15-15h467c8.284 0 15 6.716 15 15 0 8.284-6.716 15-15 15z" fill="#d67b42"/><path d="m489.5 474.5h-30c8.284 0 15 6.716 15 15s-6.716 15-15 15h30c8.284 0 15-6.716 15-15s-6.716-15-15-15z" fill="#be652b"/><ellipse cx="95.023" cy="34.5" fill="#6de470" rx="27" ry="20.999" transform="matrix(.009 -1 1 .009 59.668 129.209)"/><ellipse cx="145.917" cy="87.641" fill="#6de470" rx="34.06" ry="25.39" transform="matrix(.711 -.704 .704 .711 -19.431 128.051)"/><path d="m170.035 63.591c-7.565-7.544-20.305-7.742-31.834-1.537.609.475 1.196.983 1.752 1.537 9.929 9.902 7.181 28.697-6.139 41.98-3.172 3.163-6.658 5.72-10.261 7.659 10.273 8.019 27.77 4.88 40.344-7.659 13.318-13.284 16.067-32.079 6.138-41.98z" fill="#4dcc68"/><ellipse cx="44.083" cy="87.641" fill="#6de470" rx="25.39" ry="34.06" transform="matrix(.704 -.711 .711 .704 -49.208 57.291)"/><path d="m62.061 69.713c-12.574-12.54-30.071-15.678-40.344-7.659 3.603 1.939 7.09 4.497 10.261 7.659 13.32 13.283 16.068 32.078 6.139 41.98-.555.554-1.143 1.062-1.752 1.537 11.529 6.204 24.269 6.007 31.834-1.537 9.93-9.902 7.182-28.697-6.138-41.98z" fill="#4dcc68"/><ellipse cx="145.917" cy="177.015" fill="#6de470" rx="34.06" ry="25.39" transform="matrix(.711 -.704 .704 .711 -82.322 153.924)"/><path d="m170.035 152.964c-7.565-7.544-20.305-7.742-31.834-1.537.609.475 1.196.983 1.752 1.537 9.929 9.902 7.181 28.697-6.139 41.98-3.172 3.163-6.658 5.72-10.261 7.659 10.273 8.019 27.77 4.88 40.344-7.659 13.318-13.283 16.067-32.078 6.138-41.98z" fill="#4dcc68"/><ellipse cx="44.083" cy="177.015" fill="#6de470" rx="25.39" ry="34.06" transform="matrix(.704 -.711 .711 .704 -112.709 83.774)"/><path d="m62.061 159.086c-12.574-12.54-30.071-15.678-40.344-7.659 3.603 1.939 7.09 4.497 10.261 7.659 13.32 13.283 16.068 32.078 6.139 41.98-.555.554-1.143 1.062-1.752 1.537 11.529 6.204 24.269 6.007 31.834-1.537 9.93-9.902 7.182-28.697-6.138-41.98z" fill="#4dcc68"/><ellipse cx="145.917" cy="266.388" fill="#ffc328" rx="34.06" ry="25.39" transform="matrix(.711 -.704 .704 .711 -145.212 179.796)"/><path d="m170.035 242.337c-7.565-7.544-20.305-7.742-31.834-1.537.609.475 1.196.983 1.752 1.537 9.929 9.902 7.181 28.697-6.139 41.98-3.172 3.163-6.658 5.72-10.261 7.659 10.273 8.019 27.77 4.88 40.344-7.659 13.318-13.283 16.067-32.078 6.138-41.98z" fill="#ffb200"/><ellipse cx="44.083" cy="266.388" fill="#ffc328" rx="25.39" ry="34.06" transform="matrix(.704 -.711 .711 .704 -176.21 110.256)"/><path d="m62.061 248.459c-12.574-12.54-30.071-15.678-40.344-7.659 3.603 1.939 7.09 4.497 10.261 7.659 13.32 13.283 16.068 32.078 6.139 41.98-.555.554-1.143 1.062-1.752 1.537 11.529 6.204 24.269 6.007 31.834-1.537 9.93-9.902 7.182-28.697-6.138-41.98z" fill="#ffb200"/><ellipse cx="145.917" cy="355.762" fill="#ffc328" rx="34.06" ry="25.39" transform="matrix(.711 -.704 .704 .711 -208.103 205.669)"/><path d="m170.035 331.711c-7.565-7.544-20.305-7.742-31.834-1.537.609.475 1.196.983 1.752 1.537 9.929 9.902 7.181 28.697-6.139 41.98-3.172 3.163-6.658 5.72-10.261 7.659 10.273 8.019 27.77 4.88 40.344-7.659 13.318-13.283 16.067-32.078 6.138-41.98z" fill="#ffb200"/><ellipse cx="44.083" cy="355.762" fill="#ffc328" rx="25.39" ry="34.06" transform="matrix(.704 -.711 .711 .704 -239.711 136.739)"/><path d="m62.061 337.833c-12.574-12.54-30.071-15.678-40.344-7.659 3.603 1.939 7.09 4.497 10.261 7.659 13.32 13.283 16.068 32.078 6.139 41.98-.555.554-1.143 1.062-1.752 1.537 11.529 6.204 24.269 6.007 31.834-1.537 9.93-9.902 7.182-28.697-6.138-41.98z" fill="#ffb200"/><ellipse cx="281.954" cy="215.252" fill="#6de470" rx="27" ry="20.999" transform="matrix(.009 -1 1 .009 64.17 495.255)"/><ellipse cx="332.848" cy="268.393" fill="#6de470" rx="34.06" ry="25.39" transform="matrix(.711 -.704 .704 .711 -92.509 311.917)"/><path d="m356.965 244.342c-7.565-7.544-20.305-7.742-31.834-1.537.609.475 1.196.983 1.752 1.537 9.929 9.902 7.181 28.697-6.139 41.98-3.172 3.163-6.658 5.72-10.261 7.659 10.273 8.019 27.77 4.88 40.344-7.659 13.319-13.283 16.067-32.078 6.138-41.98z" fill="#4dcc68"/><ellipse cx="231.014" cy="268.393" fill="#6de470" rx="25.39" ry="34.06" transform="matrix(.704 -.711 .711 .704 -122.244 243.667)"/><path d="m248.992 250.464c-12.574-12.54-30.071-15.678-40.344-7.659 3.603 1.939 7.09 4.497 10.261 7.659 13.32 13.283 16.068 32.078 6.139 41.98-.555.554-1.143 1.062-1.752 1.537 11.529 6.204 24.269 6.007 31.834-1.537 9.93-9.902 7.182-28.697-6.138-41.98z" fill="#4dcc68"/><ellipse cx="332.848" cy="357.767" fill="#6de470" rx="34.06" ry="25.39" transform="matrix(.711 -.704 .704 .711 -155.4 337.79)"/><path d="m356.965 333.716c-7.565-7.544-20.305-7.742-31.834-1.537.609.475 1.196.983 1.752 1.537 9.929 9.902 7.181 28.697-6.139 41.98-3.172 3.163-6.658 5.72-10.261 7.659 10.273 8.019 27.77 4.88 40.344-7.659 13.319-13.283 16.067-32.078 6.138-41.98z" fill="#4dcc68"/><ellipse cx="231.014" cy="357.767" fill="#6de470" rx="25.39" ry="34.06" transform="matrix(.704 -.711 .711 .704 -185.745 270.15)"/><path d="m248.992 339.838c-12.574-12.54-30.071-15.678-40.344-7.659 3.603 1.939 7.09 4.497 10.261 7.659 13.32 13.283 16.068 32.078 6.139 41.98-.555.554-1.143 1.062-1.752 1.537 11.529 6.204 24.269 6.007 31.834-1.537 9.93-9.902 7.182-28.697-6.138-41.98z" fill="#4dcc68"/><ellipse cx="477.946" cy="393.16" fill="#6de470" rx="23.733" ry="17.692" transform="matrix(.711 -.704 .704 .711 -138.301 450.139)"/><ellipse cx="406.987" cy="393.16" fill="#6de470" rx="17.692" ry="23.733" transform="matrix(.704 -.711 .711 .704 -158.748 405.668)"/><path d="m489.5 467h-39.534v-35.351l12.099-12.106c3.05 1.395 6.418 2.082 9.912 2.082 8.039 0 16.747-3.638 23.792-10.663 6.761-6.742 10.639-15.413 10.639-23.79 0-6.281-2.259-11.993-6.361-16.083-9.995-9.968-27.532-8.093-39.924 4.266-6.761 6.742-10.639 15.413-10.639 23.79 0 3.485.696 6.795 2.016 9.75l-9.031 9.036-9.036-9.036c1.32-2.955 2.016-6.265 2.016-9.75 0-8.376-3.877-17.047-10.639-23.79-12.393-12.359-29.93-14.232-39.924-4.266-4.102 4.09-6.361 9.802-6.361 16.083 0 8.376 3.877 17.047 10.639 23.79 7.045 7.026 15.752 10.663 23.792 10.663 3.494 0 6.862-.688 9.912-2.082l12.099 12.099v35.358h-145.536v-55.358l20.023-20.023c4.39 2.394 9.44 3.567 14.737 3.566 10.782-.001 22.589-4.862 31.932-14.179 9.093-9.068 14.309-20.67 14.309-31.83 0-8.141-2.901-15.518-8.169-20.771-12.834-12.798-36.468-10.052-52.688 6.122-9.093 9.068-14.309 20.669-14.309 31.83 0 5.338 1.247 10.348 3.592 14.646l-9.426 9.426v-68.161l20.023-20.022c4.39 2.394 9.439 3.567 14.737 3.566 10.783-.001 22.589-4.862 31.932-14.179 2.933-2.925 2.939-7.673.015-10.606s-7.673-2.94-10.606-.015c-7.429 7.409-17.098 10.908-24.46 9.617l8.279-8.279c2.929-2.929 2.929-7.678 0-10.606-2.928-2.929-7.677-2.929-10.606 0l-8.236 8.236c-.179-1.07-.242-2.091-.242-2.996 0-7.098 3.701-15.026 9.9-21.209 10.201-10.174 24.628-12.979 31.504-6.122 2.114 2.108 3.352 4.92 3.678 8.357.391 4.123 4.044 7.152 8.175 6.758 4.124-.391 7.149-4.051 6.758-8.175-.656-6.912-3.429-12.985-8.019-17.562-12.833-12.798-36.468-10.052-52.688 6.122-9.093 9.068-14.309 20.67-14.309 31.83 0 5.338 1.248 10.347 3.592 14.645l-9.426 9.426v-52.54c11.996-4.004 20.896-17.275 21.022-33.049.071-8.872-2.607-17.308-7.542-23.755-5.286-6.907-12.826-10.901-20.686-10.959-.06 0-.117 0-.176 0-15.63 0-28.442 15.337-28.594 34.285-.071 8.872 2.607 17.309 7.541 23.755 3.626 4.737 8.312 8.104 13.434 9.771v52.492l-9.426-9.426c2.344-4.298 3.592-9.307 3.592-14.645 0-11.16-5.215-22.762-14.308-31.83-16.219-16.174-39.854-18.919-52.688-6.122-5.268 5.253-8.169 12.63-8.169 20.771 0 11.16 5.215 22.762 14.308 31.83 9.344 9.318 21.149 14.179 31.932 14.179 5.296 0 10.346-1.173 14.736-3.567l20.023 20.023v68.161l-9.426-9.426c2.344-4.298 3.592-9.307 3.592-14.646 0-11.16-5.215-22.762-14.308-31.83-16.219-16.174-39.854-18.921-52.688-6.122-5.268 5.253-8.169 12.63-8.169 20.771 0 11.16 5.215 22.762 14.308 31.83 9.344 9.318 21.148 14.179 31.932 14.179 5.296 0 10.346-1.173 14.736-3.566l20.023 20.023v55.359h-171.932v-57.363l20.023-20.023c4.39 2.394 9.439 3.567 14.736 3.566 10.783-.001 22.589-4.862 31.932-14.179 9.093-9.068 14.309-20.669 14.309-31.829 0-8.141-2.901-15.518-8.169-20.771-12.834-12.798-36.47-10.052-52.688 6.122-9.093 9.068-14.309 20.669-14.309 31.829 0 5.338 1.247 10.348 3.592 14.646l-9.426 9.426v-68.161l20.023-20.023c4.39 2.394 9.44 3.567 14.737 3.566 10.782-.001 22.589-4.862 31.932-14.179 9.093-9.068 14.309-20.67 14.309-31.83 0-8.141-2.901-15.518-8.169-20.771-12.834-12.798-36.47-10.052-52.688 6.122-9.093 9.068-14.309 20.669-14.309 31.83 0 5.338 1.248 10.348 3.592 14.646l-9.426 9.426v-68.16l20.023-20.023c4.39 2.394 9.439 3.567 14.737 3.567 10.782 0 22.589-4.862 31.932-14.179 9.093-9.068 14.309-20.67 14.309-31.83 0-8.141-2.901-15.518-8.169-20.771-12.834-12.798-36.47-10.051-52.688 6.122-9.093 9.068-14.309 20.67-14.309 31.83 0 5.338 1.247 10.347 3.592 14.645l-9.426 9.426v-68.16l20.023-20.023c4.39 2.393 9.439 3.566 14.737 3.566 10.782 0 22.589-4.862 31.932-14.179 9.093-9.068 14.309-20.669 14.309-31.83 0-8.141-2.901-15.518-8.169-20.771-12.833-12.798-36.469-10.052-52.688 6.122-9.093 9.068-14.309 20.67-14.309 31.83 0 5.338 1.248 10.347 3.592 14.645l-9.426 9.426v-52.54c11.996-4.004 20.896-17.274 21.022-33.048.071-8.872-2.607-17.308-7.542-23.755-5.289-6.907-12.828-10.901-20.688-10.96-.06 0-.117 0-.176 0-15.63 0-28.442 15.337-28.594 34.286-.071 8.872 2.607 17.308 7.541 23.755 3.626 4.737 8.312 8.104 13.434 9.771v52.492l-9.426-9.426c2.344-4.298 3.592-9.307 3.592-14.645 0-11.16-5.215-22.762-14.309-31.83-16.218-16.175-39.855-18.92-52.688-6.123-8.154 8.132-10.375 20.695-5.941 33.605 1.345 3.917 5.611 6.004 9.529 4.657 3.917-1.345 6.003-5.612 4.657-9.529-2.526-7.356-1.649-14.127 2.347-18.112 6.874-6.855 21.301-4.052 31.504 6.122 6.199 6.183 9.9 14.111 9.9 21.209 0 .904-.063 1.925-.242 2.995l-8.236-8.236c-2.929-2.929-7.678-2.929-10.606 0-2.929 2.929-2.929 7.678 0 10.606l8.262 8.262c-4.673.819-10.343-.239-15.857-3.19-3.651-1.954-8.197-.579-10.152 3.073s-.579 8.197 3.073 10.152c6.605 3.535 13.411 5.28 19.794 5.28 5.354 0 10.41-1.229 14.797-3.66l20.002 20.003v68.16l-9.426-9.426c2.344-4.298 3.592-9.307 3.592-14.645 0-11.16-5.215-22.762-14.309-31.83-16.218-16.173-39.854-18.921-52.688-6.122-5.268 5.253-8.169 12.63-8.169 20.771 0 11.16 5.215 22.762 14.309 31.83 9.344 9.318 21.149 14.179 31.932 14.179 5.296 0 10.346-1.173 14.736-3.567l20.023 20.023v68.161l-9.426-9.426c2.344-4.298 3.592-9.307 3.592-14.646 0-11.16-5.215-22.762-14.309-31.83-16.218-16.174-39.854-18.921-52.688-6.122-5.268 5.253-8.169 12.63-8.169 20.771 0 11.16 5.215 22.762 14.309 31.83 9.344 9.318 21.148 14.179 31.932 14.179 5.296 0 10.346-1.173 14.737-3.567l20.022 20.023v68.161l-9.426-9.426c2.344-4.298 3.592-9.308 3.592-14.646 0-11.16-5.215-22.761-14.309-31.829-16.218-16.175-39.854-18.921-52.688-6.122-5.269 5.254-8.17 12.63-8.169 20.771 0 11.16 5.215 22.761 14.309 31.829 9.344 9.318 21.148 14.179 31.932 14.179 5.296 0 10.346-1.173 14.736-3.567l20.023 20.024v57.363h-65c-12.407 0-22.5 10.093-22.5 22.5s10.093 22.5 22.5 22.5h386.311c4.142 0 7.5-3.358 7.5-7.5s-3.358-7.5-7.5-7.5h-386.311c-4.136 0-7.5-3.364-7.5-7.5s3.364-7.5 7.5-7.5h467c4.136 0 7.5 3.364 7.5 7.5s-3.364 7.5-7.5 7.5h-48.228c-4.142 0-7.5 3.358-7.5 7.5s3.358 7.5 7.5 7.5h48.228c12.407 0 22.5-10.093 22.5-22.5s-10.093-22.5-22.5-22.5zm-18.786-81.022c6.131-6.114 14.888-8.107 18.741-4.266 1.614 1.609 1.953 3.859 1.953 5.462 0 4.354-2.329 9.277-6.23 13.168-6.131 6.114-14.888 8.107-18.741 4.266-1.614-1.609-1.953-3.859-1.953-5.462 0-4.355 2.329-9.278 6.23-13.168zm-70.958 14.364c-3.901-3.891-6.23-8.813-6.23-13.168 0-1.604.339-3.853 1.953-5.462 1.336-1.333 3.262-1.963 5.465-1.963 4.146 0 9.272 2.236 13.276 6.229 3.901 3.891 6.23 8.813 6.23 13.168 0 1.604-.339 3.853-1.953 5.462-3.853 3.84-12.61 1.848-18.741-4.266zm-89.491-33.985c0-7.098 3.701-15.026 9.9-21.208 6.416-6.398 14.5-9.881 21.329-9.881 4.03 0 7.624 1.214 10.175 3.759 3.109 3.101 3.761 7.231 3.761 10.15 0 7.098-3.701 15.026-9.9 21.209-7.429 7.409-17.098 10.909-24.46 9.617l8.279-8.279c2.929-2.929 2.929-7.678 0-10.606-2.928-2.929-7.677-2.929-10.606 0l-8.236 8.236c-.179-1.072-.242-2.092-.242-2.997zm-91.934-85.345c-6.199-6.183-9.9-14.111-9.9-21.209 0-2.919.652-7.049 3.761-10.15 2.552-2.545 6.144-3.758 10.175-3.758 6.828 0 14.914 3.483 21.329 9.88 6.199 6.183 9.9 14.111 9.9 21.209 0 .904-.063 1.925-.242 2.995l-8.236-8.236c-2.929-2.929-7.678-2.929-10.606 0-2.929 2.929-2.929 7.678 0 10.606l8.279 8.279c-7.362 1.292-17.032-2.209-24.46-9.616zm0 89.373c-6.199-6.183-9.9-14.111-9.9-21.209 0-2.919.652-7.049 3.761-10.15 2.552-2.545 6.144-3.759 10.175-3.759 6.828 0 14.914 3.483 21.329 9.881 6.199 6.182 9.9 14.111 9.9 21.208 0 .905-.063 1.925-.242 2.996l-8.236-8.236c-2.929-2.929-7.678-2.929-10.606 0-2.929 2.929-2.929 7.678 0 10.606l8.279 8.279c-7.363 1.291-17.032-2.208-24.46-9.616zm54.578-140.709c-2.875-3.755-4.498-9.047-4.454-14.519.085-10.573 6.369-19.463 13.661-19.405 4.375.032 7.444 3.194 8.884 5.076 2.874 3.755 4.498 9.047 4.454 14.518-.053 6.534-2.462 12.424-6.023 15.958v-6.83c0-4.142-3.358-7.5-7.5-7.5s-7.5 3.358-7.5 7.5v6.924c-.623-.609-1.132-1.213-1.522-1.722zm-149.575 134.676c0-7.098 3.701-15.026 9.9-21.208 6.416-6.398 14.5-9.881 21.329-9.881 4.03 0 7.624 1.214 10.175 3.759 3.109 3.101 3.761 7.231 3.761 10.15 0 7.098-3.701 15.026-9.9 21.208-7.429 7.409-17.098 10.909-24.46 9.617l8.279-8.279c2.929-2.929 2.929-7.678 0-10.606-2.929-2.929-7.678-2.929-10.606 0l-8.236 8.236c-.179-1.071-.242-2.092-.242-2.996zm0-89.373c0-7.098 3.701-15.026 9.9-21.208 6.416-6.398 14.5-9.881 21.329-9.881 4.03 0 7.624 1.214 10.175 3.759 3.109 3.101 3.761 7.231 3.761 10.15 0 7.098-3.701 15.026-9.9 21.209-7.428 7.408-17.098 10.909-24.46 9.617l8.279-8.279c2.929-2.929 2.929-7.678 0-10.606-2.929-2.929-7.678-2.929-10.606 0l-8.236 8.236c-.179-1.072-.242-2.093-.242-2.997zm0-89.374c0-7.098 3.701-15.026 9.9-21.209 10.202-10.174 24.629-12.977 31.504-6.122 3.109 3.101 3.761 7.231 3.761 10.15 0 7.098-3.701 15.026-9.9 21.209-7.429 7.409-17.098 10.909-24.46 9.617l8.279-8.279c2.929-2.929 2.929-7.678 0-10.606-2.929-2.929-7.678-2.929-10.606 0l-8.236 8.236c-.179-1.071-.242-2.091-.242-2.996zm0-89.373c0-7.098 3.701-15.026 9.9-21.209 10.202-10.174 24.629-12.978 31.504-6.122 3.109 3.101 3.761 7.231 3.761 10.15 0 7.098-3.701 15.026-9.9 21.208-7.429 7.409-17.098 10.908-24.46 9.617l8.279-8.279c2.929-2.929 2.929-7.678 0-10.606-2.929-2.929-7.678-2.929-10.606 0l-8.236 8.236c-.179-1.07-.242-2.091-.242-2.995zm-91.934 93.401c-6.199-6.183-9.9-14.111-9.9-21.209 0-2.919.652-7.049 3.761-10.15 2.552-2.545 6.144-3.759 10.175-3.759 6.828 0 14.914 3.483 21.329 9.881 6.199 6.183 9.9 14.111 9.9 21.209 0 .904-.063 1.925-.242 2.995l-8.236-8.236c-2.929-2.929-7.678-2.929-10.606 0-2.929 2.929-2.929 7.678 0 10.606l8.279 8.279c-7.362 1.292-17.031-2.208-24.46-9.616zm0 89.374c-6.199-6.183-9.9-14.111-9.9-21.209 0-2.919.652-7.049 3.761-10.15 2.552-2.545 6.145-3.759 10.175-3.759 6.828 0 14.914 3.483 21.329 9.881 6.199 6.182 9.9 14.111 9.9 21.208 0 .905-.063 1.925-.242 2.996l-8.236-8.236c-2.929-2.929-7.678-2.929-10.606 0-2.929 2.929-2.929 7.678 0 10.606l8.279 8.279c-7.362 1.292-17.031-2.208-24.46-9.616zm0 89.373c-6.199-6.182-9.9-14.11-9.9-21.208 0-2.919.652-7.05 3.761-10.15 2.552-2.545 6.145-3.759 10.175-3.759 6.828 0 14.914 3.483 21.329 9.881 6.199 6.182 9.9 14.11 9.9 21.208 0 .905-.063 1.926-.242 2.996l-8.236-8.236c-2.929-2.929-7.678-2.929-10.606 0-2.929 2.929-2.929 7.678 0 10.606l8.279 8.279c-7.361 1.292-17.03-2.208-24.46-9.617zm54.578-319.456c-2.874-3.755-4.497-9.047-4.454-14.518.085-10.541 6.303-19.406 13.594-19.406h.066c4.375.032 7.444 3.194 8.884 5.076 2.874 3.755 4.497 9.047 4.453 14.519-.052 6.534-2.461 12.424-6.022 15.958v-6.83c0-4.142-3.358-7.5-7.5-7.5s-7.5 3.358-7.5 7.5v6.925c-.622-.611-1.131-1.215-1.521-1.724z"/></g></svg>