<svg id="Layer_5" enable-background="new 0 0 64 64" height="512" viewBox="0 0 64 64" width="512" xmlns="http://www.w3.org/2000/svg"><g><g><g><path d="m57.61 51.57c-.65.39-.72.43-1.28.43s-.63-.04-1.28-.43c-1.04-.63-2.62-1.57-5.39-1.57-2.78 0-4.35.94-5.39 1.57-.65.39-.72.43-1.28.43s-.62-.04-1.27-.43c-1.04-.62-2.62-1.57-5.39-1.57-2.78 0-4.35.94-5.39 1.57-.65.39-.72.43-1.28.43-.55 0-.62-.04-1.27-.43-1.04-.62-2.62-1.57-5.39-1.57v4 4c.56 0 .62.04 1.27.43 1.05.63 2.62 1.57 5.39 1.57 2.78 0 4.35-.94 5.39-1.57.65-.39.72-.43 1.28-.43.55 0 .62.04 1.27.43 1.04.62 2.62 1.57 5.39 1.57s4.35-.94 5.39-1.57c.65-.39.72-.43 1.28-.43s.63.04 1.28.43c1.04.63 2.61 1.57 5.39 1.57 2.77 0 4.35-.94 5.39-1.57.65-.39.72-.43 1.28-.43v-4-4c-2.78 0-4.35.94-5.39 1.57z" fill="#69d6f4"/></g><g><path d="m23 58v4h-4v-20.6c.64-.25 1.32-.4 2-.4s1.36.15 2 .4v8.6 4z" fill="#aab2bd"/></g><g><path d="m21 26s-6 4-6 18c0 0-2-3-6-3s-6 3-6 3h-1c0-9.94 8.06-18 18-18z" fill="#e6e9ed"/></g><g><path d="m27 44c0-14-6-18-6-18h1c9.94 0 18 8.06 18 18h-1s-3-3-6-3-6 3-6 3z" fill="#e6e9ed"/></g><g><path d="m21 26s6 4 6 18c0 0-1.8-1.8-4-2.6-.64-.25-1.32-.4-2-.4s-1.36.15-2 .4c-2.2.8-4 2.6-4 2.6 0-14 6-18 6-18z" fill="#ef7385"/></g><g><circle cx="47" cy="17" fill="#fcd770" r="9"/></g></g><g><path d="m56.328 51c-.284 0-.284 0-.765-.288-1.067-.64-2.854-1.712-5.907-1.712-3.051 0-4.837 1.071-5.905 1.713-.48.287-.48.287-.762.287-.279 0-.279 0-.757-.287-1.067-.641-2.853-1.713-5.904-1.713-3.052 0-4.838 1.072-5.905 1.713-.479.287-.479.287-.76.287-.28 0-.28 0-.759-.287-.945-.567-2.456-1.469-4.904-1.669v-6.068c1.312.77 2.278 1.717 2.294 1.733l.707.702.705-.702c.027-.028 2.751-2.709 5.294-2.709s5.267 2.681 5.294 2.708l.293.292h2.413v-1c0-10.477-8.523-19-19-19h-2c-10.477 0-19 8.523-19 19v1h2.535l.297-.445c.017-.026 1.743-2.555 5.168-2.555 3.387 0 5.1 2.455 5.168 2.555l.676 1.011.862-.858c.016-.016.982-.963 2.294-1.733v20.025h6v-3.57c1.089.645 2.824 1.57 5.663 1.57 3.053 0 4.839-1.072 5.906-1.713.479-.287.479-.287.759-.287s.28 0 .758.287c1.067.641 2.853 1.713 5.903 1.713 3.053 0 4.839-1.072 5.906-1.713.48-.287.48-.287.761-.287.284 0 .284 0 .765.288 1.067.64 2.854 1.712 5.907 1.712s4.84-1.072 5.907-1.712c.481-.288.481-.288.765-.288v-2c-.803 0-1.052.128-1.794.573-1.004.602-2.379 1.427-4.878 1.427s-3.874-.825-4.878-1.427c-.742-.445-.991-.573-1.794-.573-.8 0-1.049.128-1.79.572-1.004.603-2.378 1.428-4.877 1.428-2.496 0-3.87-.825-4.874-1.428-.739-.444-.987-.572-1.787-.572-.799 0-1.048.128-1.788.572-1.004.603-2.378 1.428-4.877 1.428-2.497 0-3.871-.825-4.876-1.428-.33-.198-.56-.326-.787-.415v-2.073c.749.137 1.242.427 1.817.773.892.536 1.904 1.143 3.846 1.143 1.943 0 2.955-.607 3.848-1.143.798-.479 1.428-.857 2.817-.857s2.019.378 2.816.857c.892.536 1.903 1.143 3.845 1.143 1.944 0 2.956-.607 3.849-1.143.798-.479 1.429-.857 2.818-.857 1.392 0 2.022.378 2.821.858.894.535 1.907 1.142 3.851 1.142s2.957-.607 3.851-1.142c.799-.48 1.429-.858 2.821-.858v-2c-1.944 0-2.957.607-3.851 1.142-.798.48-1.429.858-2.821.858s-2.022-.378-2.821-.858c-.894-.535-1.906-1.142-3.851-1.142-1.943 0-2.955.607-3.848 1.143-.798.479-1.428.857-2.819.857-1.388 0-2.018-.378-2.815-.857-.892-.536-1.903-1.143-3.846-1.143s-2.954.607-3.847 1.143c-.797.479-1.428.857-2.818.857-1.389 0-2.019-.378-2.816-.857-.724-.434-1.534-.91-2.847-1.076v-2.015c1.877.184 3.015.86 3.876 1.377.739.443.988.571 1.787.571.8 0 1.049-.128 1.789-.572 1.004-.603 2.378-1.428 4.876-1.428 2.497 0 3.871.825 4.875 1.428.739.444.987.572 1.786.572.801 0 1.05-.128 1.792-.573 1.004-.602 2.379-1.427 4.875-1.427 2.499 0 3.874.825 4.878 1.427.742.445.991.573 1.794.573s1.052-.128 1.794-.573c1.004-.602 2.379-1.427 4.878-1.427v-2c-3.053 0-4.84 1.072-5.907 1.712-.481.288-.481.288-.765.288zm-17.385-8.39c-1.166-.966-3.508-2.61-5.943-2.61-1.92 0-3.775 1.02-5.049 1.926-.355-8.086-2.745-12.602-4.503-14.857 8.24.7 14.825 7.293 15.495 15.541zm-24.884-.937c-1.136-.845-2.815-1.673-5.059-1.673-2.904 0-4.873 1.386-5.926 2.401.764-8.15 7.308-14.639 15.478-15.332-1.74 2.231-4.099 6.675-4.493 14.604zm7.941 19.327h-2v-18.873c.332-.079.668-.127 1-.127s.668.048 1 .127zm-1-21c-1.868 0-3.674.966-4.944 1.852.443-9.127 3.632-13.221 4.944-14.527 1.312 1.306 4.5 5.398 4.944 14.524-1.27-.885-3.079-1.849-4.944-1.849z"/><path d="m47 7c-5.514 0-10 4.486-10 10s4.486 10 10 10 10-4.486 10-10-4.486-10-10-10zm0 18c-4.411 0-8-3.589-8-8s3.589-8 8-8 8 3.589 8 8-3.589 8-8 8z"/><path d="m46 1h2v4h-2z"/><path d="m39 2.876h2v4h-2z" transform="matrix(.866 -.5 .5 .866 2.921 20.652)"/><path d="m33.875 8h2v4h-2z" transform="matrix(.5 -.866 .866 .5 8.777 35.202)"/><path d="m31 16h4v2h-4z"/><path d="m32.876 23h4v2h-4z" transform="matrix(.866 -.5 .5 .866 -7.327 20.649)"/><path d="m38 28.124h4v2h-4z" transform="matrix(.5 -.866 .866 .5 -5.222 49.205)"/><path d="m46 29h2v4h-2z"/><path d="m53 27.124h2v4h-2z" transform="matrix(.866 -.5 .5 .866 -7.328 30.9)"/><path d="m58.124 22h2v4h-2z" transform="matrix(.5 -.866 .866 .5 8.777 63.202)"/><path d="m59 16h4v2h-4z"/><path d="m57.125 9h4v2h-4z" transform="matrix(.866 -.5 .5 .866 2.919 30.897)"/><path d="m52 3.876h4v2h-4z" transform="matrix(.5 -.866 .866 .5 22.782 49.206)"/></g></g></svg>