<svg height="480pt" viewBox="0 0 480 480" width="480pt" xmlns="http://www.w3.org/2000/svg"><path d="m128 208h224v240h-224zm0 0" fill="#ddddd9"/><path d="m272 347.886719v60.113281h-64v-24.128906c-25.597656 9.707031-52.632812 15.089844-80 15.929687v48.199219h224v-208.3125c-16.210938 42.738281-43.890625 80.175781-80 108.199219zm0 0" fill="#c6c6c1"/><path d="m40 256h104v216h-104zm0 0" fill="#ddddd9"/><path d="m40 256h104v16h-104zm0 0" fill="#c6c6c1"/><path d="m128 208h224v16h-224zm0 0" fill="#c6c6c1"/><path d="m336 256h104v216h-104zm0 0" fill="#ddddd9"/><g fill="#c6c6c1"><path d="m336 256h104v16h-104zm0 0"/><path d="m40 423.601562v48.398438h96v-118.59375c-15.898438 39.867188-53.191406 67.132812-96 70.195312zm0 0"/><path d="m344 423.601562v48.398438h96v-118.59375c-15.898438 39.867188-53.191406 67.132812-96 70.195312zm0 0"/></g><path d="m320 264h152c-20.488281-20.488281-32-48.28125-32-77.257812v-66.742188c0 8.835938-7.164062 16-16 16h-104zm0 0" fill="#ff7b03"/><path d="m160 264h-152c20.488281-20.488281 32-48.28125 32-77.257812v-66.742188c0 8.835938 7.164062 16 16 16h104zm0 0" fill="#ff7b03"/><path d="m312 216h96c-15.367188-15.367188-24-36.210938-24-57.945312v-62.054688c0 8.835938-7.164062 16-16 16h-56zm0 0" fill="#e56107"/><path d="m168 216h-96c15.367188-15.367188 24-36.210938 24-57.945312v-62.054688c0 8.835938 7.164062 16 16 16h56zm0 0" fill="#e56107"/><path d="m208 328c0-20.488281 8.136719-40.136719 22.625-54.625l9.375-9.375 9.375 9.375c14.488281 14.488281 22.625 34.136719 22.625 54.625v80h-64zm0 0" fill="#ffc933"/><path d="m136 216h32v224h-32zm0 0" fill="#fff"/><path d="m312 216h32v224h-32zm0 0" fill="#fff"/><path d="m168 408h144v40h-144zm0 0" fill="#7c7c7c"/><path d="m200 96h-40c-8.835938 0-16-7.164062-16-16v49.375c0 14.488281-5.753906 28.382812-16 38.625h24zm0 0" fill="#ff7b03"/><path d="m280 96h40c8.835938 0 16-7.164062 16-16v49.375c0 14.488281 5.753906 28.382812 16 38.625h-24zm0 0" fill="#ff7b03"/><path d="m72 392h32v-41.375c0-14.488281-5.753906-28.382812-16-38.625-10.246094 10.242188-16 24.136719-16 38.625zm0 0" fill="#ffc933"/><path d="m72 360h32v32h-32zm0 0" fill="#8c603e"/><path d="m112 216h256l-128-192zm0 0" fill="#ffc933"/><path d="m200 144h80l-40-64zm0 0" fill="#a3724a"/><path d="m376 392h32v-41.375c0-14.488281-5.753906-28.382812-16-38.625-10.246094 10.242188-16 24.136719-16 38.625zm0 0" fill="#ffc933"/><path d="m376 360h32v32h-32zm0 0" fill="#8c603e"/><path d="m136 440h208v32h-208zm0 0" fill="#666"/><path d="m208 328h64v80h-64zm0 0" fill="#a3724a"/><path d="m208 328h32v80h-32zm0 0" fill="#a3724a"/><path d="m240 408h32v-60.113281c-10.105469 7.867187-20.804688 14.941406-32 21.152343zm0 0" fill="#8c603e"/><path d="m208 383.871094v24.128906h32v-38.960938c-10.300781 5.703126-20.992188 10.660157-32 14.832032zm0 0" fill="#8c603e"/><path d="m128 464h-112v-8.367188c-5.304688.320313-10.640625.480469-16 .574219v15.792969c0 4.417969 3.582031 8 8 8h128c4.417969 0 8-3.582031 8-8v-45.984375c-5.28125 2.21875-10.613281 4.324219-16 6.3125zm0 0" fill="#ddddd9"/><path d="m464 464h-112v-8.367188c-5.304688.320313-10.640625.480469-16 .574219v15.792969c0 4.417969 3.582031 8 8 8h128c4.417969 0 8-3.582031 8-8v-45.984375c-5.28125 2.21875-10.613281 4.324219-16 6.3125zm0 0" fill="#ddddd9"/><path d="m472 416h-24v-144h24c3.234375 0 6.152344-1.949219 7.390625-4.9375s.550781-6.429688-1.734375-8.71875c-19.050781-18.945312-29.730469-44.730469-29.65625-71.601562v-90.742188h-16v24c0 4.417969-3.582031 8-8 8h-32v-56h-16v24c0 4.417969-3.582031 8-8 8h-24v-48h-16v24c0 4.417969-3.582031 8-8 8h-27.71875l-44.28125-66.398438v-21.601562h-16v21.601562l-44.28125 66.398438h-27.71875c-4.417969 0-8-3.582031-8-8v-24h-16v48h-24c-4.417969 0-8-3.582031-8-8v-24h-16v56h-32c-4.417969 0-8-3.582031-8-8v-24h-16v90.742188c.074219 26.871093-10.605469 52.65625-29.65625 71.601562-2.2851562 2.289062-2.972656 5.730469-1.734375 8.71875s4.15625 4.9375 7.390625 4.9375h24v144h-24c-4.417969 0-8 3.582031-8 8v48c0 4.417969 3.582031 8 8 8h464c4.417969 0 8-3.582031 8-8v-48c0-4.417969-3.582031-8-8-8zm-72 16v32h-16v-32zm16 0h16v32h-16zm16-16h-80v-144h80zm-256 16v-16h128v16zm-32 0v-208h16v208zm-16 32h-16v-32h16zm-32-32v32h-16v-32zm144-393.601562 113.054688 169.601562h-226.109376zm64 361.601562h-24v-72c.0625-22.621094-8.925781-44.328125-24.96875-60.28125l-7.03125-7.03125v-20.6875h-16v20.6875l-7.03125 7.03125c-16.042969 15.953125-25.03125 37.660156-24.96875 60.28125v72h-24v-176h128zm-67.71875-120.96875 3.71875-3.71875 3.71875 3.71875c11.074219 11.007812 18.0625 25.457031 19.824219 40.96875h-47.085938c1.761719-15.511719 8.75-29.960938 19.824219-40.96875zm-20.28125 56.96875h16v64h-16zm32 0h16v64h-16zm72-112h16v208h-16zm104-80c2.726562 0 5.429688-.460938 8-1.367188v44.109376c-.070312 24.910156 7.855469 49.1875 22.609375 69.257812h-102.609375v-32h56c3.234375 0 6.152344-1.949219 7.390625-4.9375s.550781-6.429688-1.734375-8.71875c-13.914062-13.835938-21.710938-32.660156-21.65625-52.28125v-14.0625zm-56-24c2.726562 0 5.429688-.460938 8-1.367188v39.429688c-.050781 17.78125 5.214844 35.167969 15.113281 49.9375h-18.832031l-21.335938-32h1.054688c3.234375 0 6.152344-1.949219 7.390625-4.9375s.550781-6.429688-1.734375-8.71875c-8.714844-8.761719-13.621094-20.609375-13.65625-32.96875v-9.375zm-48-16c2.726562 0 5.429688-.460938 8-1.367188v26.742188c.003906 5.042969.621094 10.066406 1.839844 14.960938l-26.894532-40.335938zm-160 0h17.054688l-26.894532 40.335938c1.21875-4.894532 1.835938-9.917969 1.839844-14.960938v-26.742188c2.570312.90625 5.273438 1.367188 8 1.367188zm-48 16h24v9.375c-.035156 12.359375-4.941406 24.207031-13.65625 32.96875-2.285156 2.289062-2.972656 5.730469-1.734375 8.71875s4.15625 4.9375 7.390625 4.9375h1.054688l-21.335938 32h-18.832031c9.898437-14.769531 15.164062-32.15625 15.113281-49.9375v-39.429688c2.570312.90625 5.273438 1.367188 8 1.367188zm-64 66.742188v-44.109376c2.570312.90625 5.273438 1.367188 8 1.367188h32v14.0625c.054688 19.621094-7.742188 38.445312-21.65625 52.28125-2.285156 2.289062-2.972656 5.730469-1.734375 8.71875s4.15625 4.9375 7.390625 4.9375h56v32h-102.609375c14.753906-20.070312 22.679687-44.347656 22.609375-69.257812zm0 85.257812h80v144h-80zm-32 160h16v32h-16zm32 0h16v32h-16zm96 16h192v16h-192zm208-8v-8h16v32h-16zm112 24h-16v-32h16zm0 0"/><path d="m96 308.9375v-20.9375h-16v20.9375c-10.242188 11.476562-15.929688 26.304688-16 41.6875v41.375c0 4.417969 3.582031 8 8 8h32c4.417969 0 8-3.582031 8-8v-41.375c-.070312-15.382812-5.757812-30.210938-16-41.6875zm-8 15.597656c5.191406 7.714844 7.976562 16.792969 8 26.089844v1.375h-16v-1.375c.023438-9.296875 2.808594-18.375 8-26.089844zm8 59.464844h-16v-16h16zm0 0"/><path d="m200 152h80c2.910156 0 5.585938-1.578125 6.996094-4.121094 1.410156-2.542968 1.328125-5.652344-.210938-8.117187l-40-64c-1.558594-2.210938-4.097656-3.527344-6.800781-3.527344-2.707031 0-5.242187 1.316406-6.800781 3.527344l-40 64c-1.542969 2.46875-1.621094 5.585937-.203125 8.128906 1.414062 2.546875 4.105469 4.121094 7.019531 4.109375zm40-56.902344 25.601562 40.902344h-51.121093zm0 0"/><path d="m200 168h16v24h-16zm0 0"/><path d="m232 168h16v24h-16zm0 0"/><path d="m264 168h16v24h-16zm0 0"/><path d="m168 168h16v24h-16zm0 0"/><path d="m296 168h16v24h-16zm0 0"/><path d="m376 400h32c4.417969 0 8-3.582031 8-8v-41.375c-.070312-15.382812-5.757812-30.210938-16-41.6875v-20.9375h-16v20.9375c-10.242188 11.476562-15.929688 26.304688-16 41.6875v41.375c0 4.417969 3.582031 8 8 8zm8-32h16v16h-16zm8-43.464844c5.191406 7.714844 7.976562 16.792969 8 26.089844v1.375h-16v-1.375c.023438-9.296875 2.808594-18.375 8-26.089844zm0 0"/></svg>